<svg id="visual" viewBox="0 0 675 900" width="675" height="900" xmlns="http://www.w3.org/2000/svg" xmlns:xlink="http://www.w3.org/1999/xlink" version="1.1"><rect width="675" height="900" fill="#001829"></rect><g><g transform="translate(458 686)"><path d="M0 -128.1L82.3 -98.1L126.1 -22.2L110.9 64L43.8 120.4L-43.8 120.4L-110.9 64L-126.1 -22.2L-82.3 -98.1Z" fill="none" stroke="#297EA6" stroke-width="4"></path></g><g transform="translate(374 46)"><path d="M0 -119L76.5 -91.2L117.2 -20.7L103.1 59.5L40.7 111.8L-40.7 111.8L-103.1 59.5L-117.2 -20.7L-76.5 -91.2Z" stroke="#297EA6" fill="none" stroke-width="4"></path></g><g transform="translate(65 138)"><path d="M0 -69L44.4 -52.9L68 -12L59.8 34.5L23.6 64.8L-23.6 64.8L-59.8 34.5L-68 -12L-44.4 -52.9Z" stroke="#297EA6" fill="none" stroke-width="4"></path></g><g transform="translate(442 331)"><path d="M0 -46L29.6 -35.2L45.3 -8L39.8 23L15.7 43.2L-15.7 43.2L-39.8 23L-45.3 -8L-29.6 -35.2Z" stroke="#297EA6" fill="none" stroke-width="4"></path></g><g transform="translate(108 550)"><path d="M0 -41L26.4 -31.4L40.4 -7.1L35.5 20.5L14 38.5L-14 38.5L-35.5 20.5L-40.4 -7.1L-26.4 -31.4Z" stroke="#297EA6" fill="none" stroke-width="4"></path></g><g transform="translate(197 832)"><path d="M0 -48L30.9 -36.8L47.3 -8.3L41.6 24L16.4 45.1L-16.4 45.1L-41.6 24L-47.3 -8.3L-30.9 -36.8Z" stroke="#297EA6" fill="none" stroke-width="4"></path></g><g transform="translate(645 898)"><path d="M0 -82L52.7 -62.8L80.8 -14.2L71 41L28 77.1L-28 77.1L-71 41L-80.8 -14.2L-52.7 -62.8Z" stroke="#297EA6" fill="none" stroke-width="4"></path></g><g transform="translate(672 140)"><path d="M0 -23L14.8 -17.6L22.7 -4L19.9 11.5L7.9 21.6L-7.9 21.6L-19.9 11.5L-22.7 -4L-14.8 -17.6Z" stroke="#297EA6" fill="none" stroke-width="4"></path></g><g transform="translate(669 503)"><path d="M0 -39L25.1 -29.9L38.4 -6.8L33.8 19.5L13.3 36.6L-13.3 36.6L-33.8 19.5L-38.4 -6.8L-25.1 -29.9Z" stroke="#297EA6" fill="none" stroke-width="4"></path></g></g></svg>