<svg id="visual" viewBox="0 0 675 900" width="675" height="900" xmlns="http://www.w3.org/2000/svg" xmlns:xlink="http://www.w3.org/1999/xlink" version="1.1"><rect width="675" height="900" fill="#001829"></rect><g><g transform="translate(533 842)"><path d="M0 -224.1L144 -171.7L220.7 -38.9L194.1 112L76.6 210.6L-76.6 210.6L-194.1 112L-220.7 -38.9L-144 -171.7Z" fill="none" stroke="#297EA6" stroke-width="4"></path></g><g transform="translate(114 529)"><path d="M0 -133L85.5 -101.9L131 -23.1L115.2 66.5L45.5 125L-45.5 125L-115.2 66.5L-131 -23.1L-85.5 -101.9Z" stroke="#297EA6" fill="none" stroke-width="4"></path></g><g transform="translate(371 153)"><path d="M0 -57L36.6 -43.7L56.1 -9.9L49.4 28.5L19.5 53.6L-19.5 53.6L-49.4 28.5L-56.1 -9.9L-36.6 -43.7Z" stroke="#297EA6" fill="none" stroke-width="4"></path></g></g></svg>